<svg width="68" height="71" viewBox="0 0 68 71" fill="none" xmlns="http://www.w3.org/2000/svg">
<path id="Vector" d="M31.8447 0.0284729C26.1834 0.518692 22.1073 1.60485 17.7977 3.76757C8.65473 8.36214 2.36364 16.3594 0.608652 25.6351C-0.742975 32.8153 0.686495 40.1301 4.67769 46.4452C6.29822 49.002 8.66888 51.7126 10.99 53.6447L11.542 54.106L11.3509 54.5578C10.9758 55.4517 9.97805 57.4222 9.46146 58.2969C7.6357 61.3824 5.44903 64.2372 1.81875 68.2646C0.792643 69.4085 0.212364 70.1198 0.113292 70.3601C-0.0353165 70.7157 -0.0353165 70.7253 0.0991385 70.8599C0.297283 71.0617 1.21016 71.0425 2.15842 70.8214C7.26772 69.6199 13.8772 66.1404 20.9255 60.9402L22.2205 59.9886L23.2254 60.2962C25.2776 60.9114 27.1246 61.3055 29.5802 61.6515C30.5709 61.7861 31.4625 61.8245 34.003 61.8245C37.2512 61.8245 38.0155 61.7669 40.2658 61.392C50.9798 59.5561 59.967 53.2794 64.7083 44.3017C66.3289 41.2451 67.3196 38.1115 67.8008 34.5935C67.9848 33.267 68.0626 29.9893 67.9423 28.6436C67.3267 21.7037 64.3757 15.379 59.3726 10.2942C53.8529 4.68072 46.6772 1.25881 38.249 0.211098C37.1309 0.0669174 32.7717 -0.0580368 31.8447 0.0284729Z" fill="white"/>
</svg>
