<svg width="50" height="50" viewBox="0 0 50 50" fill="none" xmlns="http://www.w3.org/2000/svg">
<g id="153639 1" clip-path="url(#clip0_509_327)">
<g id="Group">
<path id="Vector" d="M16.6929 0.0078125C16.6929 0.015625 16.5279 0.632812 16.3236 1.38672L15.9584 2.75391L15.5892 2.83984C14.9686 2.98828 14.2969 3.16797 13.9277 3.29297L13.5782 3.40625L12.553 2.38672L11.5279 1.36719L9.53653 2.51172C8.44069 3.14062 7.53731 3.66406 7.5216 3.67578C7.50196 3.69531 7.63943 4.22656 8.14611 6.08984L8.24431 6.45703L7.90259 6.77344C7.47447 7.16797 7.21131 7.42969 6.81461 7.85547L6.50039 8.19141L5.10998 7.82422C4.348 7.62109 3.71563 7.46094 3.7117 7.46875C3.67636 7.5 1.41398 11.4102 1.41398 11.4375C1.41398 11.4531 1.86567 11.9141 2.42341 12.4688L3.42891 13.4688L3.30715 13.8555C3.1304 14.4102 3.00079 14.8789 2.88295 15.4102C2.82404 15.668 2.77691 15.8828 2.77298 15.8867C2.76905 15.8867 2.17596 16.043 1.45326 16.2305C0.730558 16.4141 0.106049 16.5742 0.0706991 16.5859C0.00392773 16.6055 0 16.75 0 18.9219V21.2344L1.05263 21.5C1.63001 21.6484 2.25059 21.8047 2.43519 21.8516L2.76905 21.9414L2.82404 22.1719C3.00471 22.9531 3.12255 23.3984 3.26787 23.8594L3.43284 24.3828L2.4077 25.375L1.38256 26.3672L2.53731 28.3477C3.16968 29.4375 3.70778 30.3359 3.73134 30.3438C3.75098 30.3516 4.37156 30.1914 5.10212 29.9844L6.43755 29.6094L7.34878 30.5156L8.25609 31.4219L7.87903 32.7695C7.58052 33.8359 7.51375 34.1289 7.55302 34.1641C7.57659 34.1875 8.4839 34.7148 9.56402 35.332L11.5279 36.457L12.5295 35.4375L13.535 34.418L13.9631 34.5547C14.4658 34.7188 15.7227 35.0391 15.8562 35.0391C15.9741 35.0391 15.9859 35.0625 16.2019 35.918C16.3001 36.3047 16.4533 36.8984 16.5436 37.2344L16.7046 37.8516H19.0181H21.3276L21.3629 37.7617C21.3826 37.7148 21.5397 37.1055 21.7203 36.4062C21.8971 35.707 22.0621 35.1133 22.0817 35.0859C22.1053 35.0625 22.1563 35.0391 22.1956 35.0391C22.3252 35.0391 23.5428 34.7305 24.0416 34.5703C24.3205 34.4844 24.5365 34.4336 24.5483 34.4531C24.6269 34.5781 26.5318 36.4453 26.5672 36.4297C26.5907 36.4219 27.4941 35.9023 28.5742 35.2812C30.2082 34.3438 30.5381 34.1406 30.5263 34.0742C30.5224 34.0312 30.3496 33.4102 30.1493 32.6914L29.78 31.3867L30 31.1953C30.2907 30.9414 31.1194 30.1211 31.3708 29.832L31.5672 29.6055L32.0738 29.7461C33.3818 30.1133 34.2577 30.3516 34.3009 30.3516C34.3441 30.3516 36.6104 26.5117 36.6379 26.3945C36.6418 26.3672 36.1901 25.9023 35.6284 25.3633L34.6112 24.375L34.7643 23.9102C34.9293 23.4062 35.0746 22.8516 35.1885 22.3164L35.2592 21.9766L36.4729 21.6523C37.1406 21.4727 37.7691 21.3086 37.8751 21.2812L38.0597 21.2383V18.9219V16.6055L37.934 16.5703C37.8633 16.5508 37.2467 16.3906 36.5672 16.2109C35.8877 16.0312 35.3103 15.8711 35.2867 15.8516C35.2632 15.832 35.2278 15.7461 35.216 15.6523C35.1728 15.3789 34.9764 14.6172 34.7958 14.0273L34.6308 13.4688L35.6441 12.4609C36.6143 11.4961 36.6536 11.4531 36.6064 11.3633C36.5515 11.2578 34.3637 7.48828 34.3441 7.46875C34.3401 7.46094 33.7156 7.62109 32.9537 7.82422L31.575 8.19531L30.6952 7.31641L29.8193 6.44141L30.1846 5.06641C30.3888 4.3125 30.546 3.6875 30.5381 3.67969C30.5342 3.67188 29.6269 3.15234 28.531 2.51953L26.5318 1.37109L25.5067 2.39062L24.4776 3.40625L24.1123 3.28906C23.5507 3.10547 23.2404 3.02344 22.6669 2.89453C22.3763 2.82812 22.1288 2.76172 22.1131 2.74609C22.0974 2.73047 21.9207 2.10547 21.7203 1.35547L21.3551 0H19.022C17.7416 0 16.6929 0.00390625 16.6929 0.0078125Z" fill="white"/>
<path id="Vector_2" d="M37.6081 28.0938C37.5963 28.1328 37.1014 29.9688 36.9168 30.6719C36.8933 30.7578 36.854 30.8203 36.8226 30.8203C36.6026 30.8203 35.4125 31.2852 34.8784 31.582L34.5602 31.7539L33.3348 31.0352L32.1093 30.3125L31.1549 31.2617L30.2004 32.2109L30.931 33.4258L31.6576 34.6445L31.5123 34.8906C31.2845 35.2734 31.0135 35.9102 30.8328 36.4688C30.6718 36.9805 30.6718 36.9805 30.5264 37.0234C30.4479 37.0469 30.0197 37.1562 29.5759 37.2656C29.1321 37.3789 28.5861 37.5195 28.3583 37.5781L27.9459 37.6836L27.9341 39.0273L27.9263 40.3711L29.2892 40.7148C30.0433 40.9062 30.66 41.0664 30.6639 41.0703C30.6718 41.0742 30.7267 41.2578 30.7935 41.4727C30.9388 41.9609 31.2491 42.6992 31.4809 43.1016L31.6537 43.4062L30.931 44.6211L30.2044 45.8398L31.1588 46.7891L32.1132 47.7383L33.3269 47.0195L34.5366 46.3047L35.1297 46.6016C35.6796 46.875 36.1431 47.0547 36.689 47.207L36.909 47.2695L37.1525 48.2148C37.286 48.7344 37.4471 49.3438 37.506 49.5703L37.616 49.9805L38.971 49.9922L40.3261 50L40.3536 49.875C40.3693 49.8047 40.5225 49.1914 40.6953 48.5156L41.0135 47.2852L41.5987 47.0977C41.9679 46.9766 42.4117 46.7969 42.7731 46.6172L43.3622 46.3242L44.5877 47.0312L45.8132 47.7383L46.7676 46.7891L47.722 45.8398L47.0111 44.6211L46.3002 43.4023L46.5948 42.8203C46.7676 42.4727 46.96 42.0078 47.074 41.668L47.2586 41.1016L47.5414 41.0234C47.6945 40.9844 48.3112 40.8203 48.9121 40.6602L50.0001 40.3711L49.9923 39.0273L49.9805 37.6836L48.6254 37.3242C47.8084 37.1055 47.2625 36.9453 47.2468 36.9102C47.2311 36.8789 47.1447 36.6289 47.0582 36.3477C46.964 36.0508 46.7715 35.5938 46.6026 35.25L46.3041 34.6562L47.015 33.4336L47.726 32.2109L46.7715 31.2617L45.8171 30.3164L44.5798 31.0312L43.3465 31.7461L43.1187 31.6133C42.6592 31.3477 41.7597 30.9766 41.2688 30.8555C41.1627 30.832 41.0645 30.7812 41.0527 30.7461C41.037 30.7109 40.8681 30.0938 40.6718 29.375L40.3183 28.0664L38.971 28.0547C37.9145 28.0469 37.6238 28.0547 37.6081 28.0938Z" fill="white"/>
</g>
</g>
<defs>
<clipPath id="clip0_509_327">
<rect width="50" height="50" fill="white"/>
</clipPath>
</defs>
</svg>
