<svg width="51" height="50" viewBox="0 0 51 50" fill="none" xmlns="http://www.w3.org/2000/svg">
<g id="Group">
<path id="Vector" d="M50.9377 2.61773C50.8557 2.20028 50.8206 2.07364 50.7346 1.86726C50.3713 0.971389 49.5549 0.347562 48.4221 0.103659C47.9846 0.00516039 3.93774 0.00516039 3.50024 0.103659C2.36743 0.347562 1.55102 0.971389 1.18774 1.86726C1.02368 2.26126 0.980708 2.5333 0.984614 3.11023C0.984614 3.79034 1.08227 4.23593 1.38696 4.95826C1.50805 5.24437 4.2268 10.5446 7.42211 16.7359C14.0666 29.5971 20.5979 42.2472 22.5198 45.9714C23.8948 48.6449 24.0627 48.9217 24.551 49.3626C25.4924 50.2209 26.4299 50.2209 27.3752 49.3626C27.8401 48.9357 28.0276 48.6309 29.1409 46.4733C30.0706 44.6768 41.3088 22.9085 48.1018 9.74719C49.3831 7.27064 50.5042 5.05676 50.594 4.82223C50.8284 4.23124 50.9221 3.79034 50.9417 3.20404C50.9495 2.93199 50.9495 2.66933 50.9377 2.61773Z" fill="white"/>
</g>
</svg>
